<?xml version="1.0" encoding="UTF-8" standalone="no"?>
<!-- Created with Inkscape (http://www.inkscape.org/) -->

<svg
   xmlns:dc="http://purl.org/dc/elements/1.1/"
   xmlns:cc="http://creativecommons.org/ns#"
   xmlns:rdf="http://www.w3.org/1999/02/22-rdf-syntax-ns#"
   xmlns:svg="http://www.w3.org/2000/svg"
   xmlns="http://www.w3.org/2000/svg"
   xmlns:sodipodi="http://sodipodi.sourceforge.net/DTD/sodipodi-0.dtd"
   xmlns:inkscape="http://www.inkscape.org/namespaces/inkscape"
   width="214.69675mm"
   height="175.65784mm"
   viewBox="0 0 760.73657 622.40967"
   id="svg4136"
   version="1.1"
   inkscape:version="0.91 r13725"
   sodipodi:docname="logo.svg">
  <defs
     id="defs4138" />
  <sodipodi:namedview
     id="base"
     pagecolor="#ffffff"
     bordercolor="#666666"
     borderopacity="1.0"
     inkscape:pageopacity="0"
     inkscape:pageshadow="2"
     inkscape:zoom="0.35"
     inkscape:cx="-107.66151"
     inkscape:cy="-11.673696"
     inkscape:document-units="px"
     inkscape:current-layer="layer2"
     showgrid="false"
     units="mm"
     inkscape:window-width="1920"
     inkscape:window-height="1033"
     inkscape:window-x="-4"
     inkscape:window-y="-4"
     inkscape:window-maximized="1"
     fit-margin-top="0"
     fit-margin-left="0"
     fit-margin-right="0"
     fit-margin-bottom="0"
     showborder="true" />
  <metadata
     id="metadata4141">
    <rdf:RDF>
      <cc:Work
         rdf:about="">
        <dc:format>image/svg+xml</dc:format>
        <dc:type
           rdf:resource="http://purl.org/dc/dcmitype/StillImage" />
        <dc:title></dc:title>
      </cc:Work>
    </rdf:RDF>
  </metadata>
  <g
     inkscape:groupmode="layer"
     id="layer1"
     inkscape:label="mug only"
     transform="translate(-74.150157,-294.55773)"
     style="opacity:1">
    <path
       style="color:#000000;font-style:normal;font-variant:normal;font-weight:normal;font-stretch:normal;font-size:medium;line-height:normal;font-family:sans-serif;text-indent:0;text-align:start;text-decoration:none;text-decoration-line:none;text-decoration-style:solid;text-decoration-color:#000000;letter-spacing:normal;word-spacing:normal;text-transform:none;direction:ltr;block-progression:tb;writing-mode:lr-tb;baseline-shift:baseline;text-anchor:start;white-space:normal;clip-rule:nonzero;display:inline;overflow:visible;visibility:visible;opacity:1;isolation:auto;mix-blend-mode:normal;color-interpolation:sRGB;color-interpolation-filters:linearRGB;solid-color:#000000;solid-opacity:1;fill:#f5c966;fill-opacity:1;fill-rule:evenodd;stroke:none;stroke-width:35;stroke-linecap:round;stroke-linejoin:round;stroke-miterlimit:4;stroke-dasharray:none;stroke-dashoffset:0;stroke-opacity:1;color-rendering:auto;image-rendering:auto;shape-rendering:auto;text-rendering:auto;enable-background:accumulate"
       d="m 138.28187,583.0791 c -46.742249,0 -13.77916,38.93401 -8.96427,56.29508 75.01175,270.47001 191.45191,270.33986 191.45191,270.33986 l 70.9823,0 70.98054,0 c 0,0 68.52442,0.0214 134.29419,-122.00538 2.95122,-1.51878 6.01015,-2.99742 9.19888,-4.43187 22.57395,-10.15496 50.20954,-17.89887 77.40435,-26.84336 27.19482,-8.94448 54.15856,-19.00006 75.56423,-36.06234 21.40569,-17.0623 36.29654,-42.46125 36.29654,-75.5704 0,-15.06471 -5.56411,-29.21659 -15.88707,-39.33889 -10.32297,-10.12229 -24.91593,-15.89122 -41.02553,-16.70753 -21.55615,-1.09229 -45.95331,5.94842 -71.63011,22.33197 5.67478,-14.59183 5.70852,-28.00714 -21.72784,-28.00714 l -253.46818,0 -253.46994,0 z m 596.81366,35.8898 c 0.62529,0.007 1.23895,0.0254 1.84013,0.0558 9.61886,0.4874 16.05049,3.52685 20.31842,7.71182 4.26792,4.18496 6.86152,9.83912 6.86152,18.06415 0,25.08458 -9.02785,39.5459 -24.8881,52.18799 -15.86026,12.64206 -39.5112,22.13264 -65.70879,30.74915 -18.23965,5.9991 -37.60962,11.62386 -56.40486,18.40247 10.01774,-23.06041 19.78801,-49.38858 29.05158,-79.41023 a 15.689037,15.157881 0 0 0 4.23352,-3.00928 c 34.47047,-33.66723 65.3126,-44.96489 84.69658,-44.75189 z"
       id="handle"
       inkscape:connector-curvature="0">
      <desc
         id="desc4186">The handle of the teacup</desc>
      <title
         id="title4184">Teacup handle</title>
    </path>
  </g>
  <g
     inkscape:groupmode="layer"
     id="layer2"
     inkscape:label="steam graph"
     transform="translate(-74.150157,-294.55773)">
    <g
       id="g4163"
       transform="matrix(0.87948908,0,0,0.87002321,65.520235,110.4278)">
      <path
         style="opacity:1;fill:#418997;fill-opacity:1;stroke:none;stroke-width:18.6973381;stroke-linecap:butt;stroke-linejoin:miter;stroke-miterlimit:4;stroke-dasharray:none;stroke-opacity:1"
         d="m 216.35393,456.36981 32.5708,0 0,55.79808 -32.5708,0 z"
         id="rect5281"
         inkscape:connector-curvature="0" />
      <path
         style="fill:#418997;fill-opacity:1;stroke:none;stroke-width:18.6973381;stroke-linecap:butt;stroke-linejoin:miter;stroke-miterlimit:4;stroke-dasharray:none;stroke-opacity:1"
         d="m 283.65148,345.8852 32.57079,0 0,166.28269 -32.57079,0 z"
         id="use5283"
         inkscape:connector-curvature="0" />
      <path
         style="opacity:1;fill:#418997;fill-opacity:1;stroke:none;stroke-width:18.6973381;stroke-linecap:butt;stroke-linejoin:miter;stroke-miterlimit:4;stroke-dasharray:none;stroke-opacity:1"
         d="m 350.94903,294.5577 32.5708,0 0,217.61019 -32.5708,0 z"
         id="use5285"
         inkscape:connector-curvature="0" />
      <path
         style="fill:#418997;fill-opacity:1;stroke:none;stroke-width:18.6973381;stroke-linecap:butt;stroke-linejoin:miter;stroke-miterlimit:4;stroke-dasharray:none;stroke-opacity:1"
         d="m 418.2466,421.84443 32.57078,0 0,90.32346 -32.57078,0 z"
         id="use5287"
         inkscape:connector-curvature="0" />
      <path
         style="opacity:1;fill:#418997;fill-opacity:1;stroke:none;stroke-width:18.6973381;stroke-linecap:butt;stroke-linejoin:miter;stroke-miterlimit:4;stroke-dasharray:none;stroke-opacity:1"
         d="m 485.54413,381.55347 32.57078,0 0,130.61442 -32.57078,0 z"
         id="use5289"
         inkscape:connector-curvature="0" />
    </g>
  </g>
</svg>
